<svg xmlns="http://www.w3.org/2000/svg" width="229" height="40" viewBox="0 0 229 40">
    <g fill="none" fill-rule="nonzero">
        <g transform="translate(0 2.79)">
            <path fill="#1AB5F1" d="M0 0l38.167 37.21L76.333 0H52.706l-14.54 9.273L23.628 0H0h2.908z"/>
            <ellipse cx="23.627" cy="15.895" fill="#1AB5F1" rx="15.994" ry="15.895"/>
            <ellipse cx="23.627" cy="15.895" fill="#FFF" rx="11.268" ry="11.199"/>
            <ellipse cx="23.627" cy="15.895" fill="#000" rx="5.998" ry="5.961"/>
            <ellipse cx="52.706" cy="15.895" fill="#1AB5F1" rx="15.994" ry="15.895"/>
            <ellipse cx="52.706" cy="15.895" fill="#FFF" rx="11.268" ry="11.199"/>
            <ellipse cx="52.706" cy="15.895" fill="#000" rx="5.998" ry="5.961"/>
        </g>
        <g fill="#FFF">
            <path d="M88.45 21.395V9.965s1.549-.715 3.217-.715c2.204 0 2.562 1.459 2.562 4.287v7.858h3.396v-7.769c0-5-1.043-7.442-5.183-7.442-1.877 0-3.992 1.25-3.992 1.25v-.893h-3.396v14.854h3.396zm24.702-10.18c0-3.483-1.728-5.03-5.064-5.03-2.413 0-6.077.803-6.077.803l.09 2.5s3.574-.268 5.6-.268c1.37 0 2.055.626 2.055 1.995v.923l-3.664.327c-3.217.238-5.004 1.31-5.004 4.495 0 3.096 1.49 4.763 4.468 4.763 2.383 0 4.707-1.072 4.707-1.072 1.132.834 2.174 1.072 4.021 1.072l.12-2.59c-.894-.119-1.163-.536-1.252-1.37v-6.548zm-3.396 3.334v3.78s-2.145.596-3.485.596c-1.221 0-1.758-.804-1.758-2.054 0-1.28.686-1.905 1.966-2.024l3.277-.298zm15.11-8.365c-1.578 0-3.604.804-3.604.804V.38h-3.396v20.956s3.992.387 5.54.387c5.303 0 7.27-1.756 7.27-7.948 0-5.567-1.758-7.59-5.81-7.59zm-1.489 12.473c-.566 0-2.115-.15-2.115-.15v-8.75s1.847-.417 3.158-.417c1.906 0 2.8 1.16 2.8 4.435 0 3.512-.656 4.882-3.843 4.882zm22.021-7.442c0-3.483-1.727-5.03-5.064-5.03-2.413 0-6.077.803-6.077.803l.09 2.5s3.574-.268 5.6-.268c1.37 0 2.055.626 2.055 1.995v.923l-3.664.327c-3.217.238-5.004 1.31-5.004 4.495 0 3.096 1.49 4.763 4.468 4.763 2.383 0 4.707-1.072 4.707-1.072 1.132.834 2.174 1.072 4.021 1.072l.12-2.59c-.894-.119-1.162-.536-1.252-1.37v-6.548zm-3.396 3.334v3.78s-2.144.596-3.485.596c-1.221 0-1.757-.804-1.757-2.054 0-1.28.685-1.905 1.966-2.024l3.276-.298zm6.293-8.008l3.783 14.854h6.018l3.813-14.854h-3.456l-2.89 12.026h-.893l-2.83-12.026h-3.545zm27.532 4.674c0-3.483-1.727-5.03-5.064-5.03-2.413 0-6.077.803-6.077.803l.09 2.5s3.574-.268 5.6-.268c1.37 0 2.055.626 2.055 1.995v.923l-3.664.327c-3.217.238-5.004 1.31-5.004 4.495 0 3.096 1.49 4.763 4.468 4.763 2.383 0 4.707-1.072 4.707-1.072 1.132.834 2.174 1.072 4.021 1.072l.12-2.59c-.894-.119-1.162-.536-1.252-1.37v-6.548zm-3.396 3.334v3.78s-2.144.596-3.485.596c-1.221 0-1.757-.804-1.757-2.054 0-1.28.685-1.905 1.966-2.024l3.276-.298zm7.574 6.846h3.664V16.96h-3.664v4.435zm11.506 0V9.965s1.549-.715 3.217-.715c2.205 0 2.562 1.459 2.562 4.287v7.858h3.396v-7.769c0-5-1.043-7.442-5.183-7.442-1.877 0-3.992 1.25-3.992 1.25v-.893h-3.396v14.854h3.396zm19.31-2.768c-2.412 0-3.306-1.042-3.336-3.215h9.145l.239-2.44c0-4.615-2.115-6.788-6.345-6.788-4.141 0-6.465 2.53-6.465 7.948 0 5.24 1.758 7.59 6.256 7.59 2.651 0 6.047-.714 6.047-.714l-.06-2.649s-3.127.268-5.48.268zm-3.336-5.864c0-2.47.924-3.543 3.039-3.543s2.978.953 2.978 3.543h-6.017zm20.532-3.156V6.541h-4.021V2.225H220.6v4.316h-1.877v3.066h1.877v6.55c0 4.286 1.042 5.596 4.468 5.596 1.043 0 3.038-.417 3.038-.417l-.149-2.917s-1.578.089-2.412.089c-1.49 0-1.55-.774-1.55-2.828V9.607h4.022zM88.392 32.671h.823v1.532c-.01 0-.583.073-1.073.073-1.418 0-1.71-.688-1.71-2.542 0-1.907.365-2.522 1.74-2.522.95 0 2.222.167 2.222.167l.03-1.063s-1.334-.291-2.428-.291c-2.127 0-2.826 1.187-2.826 3.709 0 2.396.636 3.73 2.867 3.73.907 0 2.388-.24 2.388-.24v-3.647h-2.033v1.094zm7.563-4.615h-1.199v2.104c-.052-.01-.76-.135-1.167-.135-1.48 0-2.169.823-2.169 2.688 0 1.969.594 2.75 1.981 2.75.615 0 1.355-.364 1.355-.364v.25h1.2v-7.293zm-2.366 6.303c-.636-.02-.96-.375-.96-1.636 0-1.146.324-1.615 1.043-1.615.438 0 1.032.094 1.084.094v2.928s-.656.219-1.167.23zm3.987.781c0 .855-.219 1.032-1.157 1.595l.532.99c1.428-.73 1.814-1.188 1.814-2.574V30.15h-1.189v4.99zm0-5.907h1.189v-1.26h-1.189v1.26zm4.76 5.147c-.845 0-1.158-.365-1.168-1.125h3.2l.084-.855c0-1.615-.74-2.375-2.22-2.375-1.45 0-2.263.886-2.263 2.782 0 1.833.615 2.656 2.19 2.656.927 0 2.116-.25 2.116-.25l-.021-.927s-1.095.094-1.919.094zm-1.168-2.053c0-.864.323-1.24 1.063-1.24s1.043.334 1.043 1.24h-2.106zm6.984 5.251h1.189V35.37c.052.01.542.093.97.093 1.595 0 2.335-.604 2.335-2.77 0-1.95-.646-2.668-2.002-2.668-.594 0-1.303.406-1.303.406v-.281h-1.189v7.428zm2.273-6.46c.626 0 1.012.397 1.012 1.574 0 1.24-.271 1.698-1.21 1.698-.344 0-.844-.062-.886-.073V31.39s.626-.271 1.084-.271zm7.355.668c0-1.22-.604-1.761-1.772-1.761-.844 0-2.127.281-2.127.281l.031.875s1.252-.093 1.96-.093c.48 0 .72.218.72.698v.323l-1.282.114c-1.127.084-1.752.459-1.752 1.573 0 1.084.521 1.667 1.564 1.667.834 0 1.647-.375 1.647-.375.396.292.761.375 1.408.375l.041-.906c-.312-.042-.406-.188-.438-.48v-2.291zm-1.188 1.167v1.323s-.75.208-1.22.208c-.427 0-.615-.281-.615-.719 0-.448.24-.667.688-.708l1.147-.104zm4.008 2.396v-3.97s.626-.24 1.085-.24c.75 0 .855.428.855 1.532v2.678h1.188V32.65c0-.479-.042-1.177-.073-1.25.01-.01.626-.26 1.137-.26.834 0 .855.552.855 1.958v2.25h1.188V32.63c0-1.824-.396-2.605-1.814-2.605-.615 0-1.355.27-1.814.448-.26-.271-.636-.417-1.168-.438-.156 0-.354.032-.542.073-.47.084-.907.323-.907.323v-.281h-1.178v5.199h1.188zm9.764-.97c-.845 0-1.157-.364-1.168-1.124h3.201l.083-.855c0-1.615-.74-2.375-2.22-2.375-1.45 0-2.263.886-2.263 2.782 0 1.833.615 2.656 2.19 2.656.928 0 2.116-.25 2.116-.25l-.02-.927s-1.095.094-1.92.094zm-1.168-2.052c0-.864.323-1.24 1.064-1.24.74 0 1.042.334 1.042 1.24h-2.106zm7.168-1.104V30.15h-1.408v-1.51h-1.188v1.51h-.657v1.073h.657v2.292c0 1.5.365 1.959 1.564 1.959.364 0 1.063-.146 1.063-.146l-.052-1.021s-.553.031-.845.031c-.52 0-.542-.27-.542-.99v-2.125h1.408zm2.246 4.126v-4s.542-.251 1.126-.251c.772 0 .897.51.897 1.5v2.75h1.188V32.63c0-1.75-.365-2.605-1.814-2.605-.657 0-1.397.438-1.397.438v-.313h-1.188v5.199h1.188zm8.627-3.563c0-1.22-.604-1.761-1.772-1.761-.845 0-2.127.281-2.127.281l.031.875s1.251-.093 1.96-.093c.48 0 .72.218.72.698v.323l-1.283.114c-1.126.084-1.751.459-1.751 1.573 0 1.084.521 1.667 1.564 1.667.834 0 1.647-.375 1.647-.375.396.292.761.375 1.408.375l.041-.906c-.313-.042-.406-.188-.438-.48v-2.291zm-1.188 1.167v1.323s-.75.208-1.22.208c-.428 0-.615-.281-.615-.719 0-.448.24-.667.688-.708l1.147-.104zm6.505 2.396v-2.021l.646-.084 1.23 2.105h1.345l-1.532-2.761 1.47-2.438h-1.335l-1.199 1.927-.625.084v-4.168h-1.189v7.356h1.189zm7.292-5.199v4s-.677.24-1.136.24c-.792 0-.855-.427-.855-1.531V30.15h-1.188v2.72c0 1.822.302 2.593 1.803 2.593.563 0 1.376-.375 1.376-.375v.26h1.189V30.15h-1.189zm2.779 7.428h1.188V35.37c.052.01.542.093.97.093 1.595 0 2.335-.604 2.335-2.77 0-1.95-.646-2.668-2.002-2.668-.594 0-1.303.406-1.303.406v-.281h-1.188v7.428zm2.272-6.46c.626 0 1.012.397 1.012 1.574 0 1.24-.271 1.698-1.21 1.698-.344 0-.844-.062-.886-.073V31.39s.626-.271 1.084-.271zm4.645 4.23v-4s.542-.25 1.126-.25c.771 0 .897.51.897 1.5v2.75h1.188V32.63c0-1.75-.365-2.605-1.814-2.605-.657 0-1.397.438-1.397.438v-.313h-1.189v5.199h1.189zm4.77-.208c0 .855-.22 1.032-1.158 1.595l.532.99c1.428-.73 1.814-1.188 1.814-2.574V30.15h-1.189v4.99zm0-5.907h1.188v-1.26h-1.189v1.26zm6.646 2.553c0-1.22-.605-1.761-1.773-1.761-.844 0-2.127.281-2.127.281l.032.875s1.25-.093 1.96-.093c.48 0 .72.218.72.698v.323l-1.283.114c-1.126.084-1.752.459-1.752 1.573 0 1.084.521 1.667 1.564 1.667.834 0 1.647-.375 1.647-.375.397.292.761.375 1.408.375l.042-.906c-.313-.042-.407-.188-.438-.48v-2.291zm-1.189 1.167v1.323s-.75.208-1.22.208c-.427 0-.615-.281-.615-.719 0-.448.24-.667.688-.708l1.147-.104zm5.098-1.74h2.44l-2.44 3.063v1.073h3.868v-1.073h-2.43l2.43-3.063V30.14h-3.868v1.073zm9.148.573c0-1.22-.605-1.761-1.772-1.761-.845 0-2.127.281-2.127.281l.031.875s1.251-.093 1.96-.093c.48 0 .72.218.72.698v.323l-1.283.114c-1.126.084-1.751.459-1.751 1.573 0 1.084.52 1.667 1.563 1.667.835 0 1.648-.375 1.648-.375.396.292.76.375 1.407.375l.042-.906c-.313-.042-.407-.188-.438-.48v-2.291zm-1.188 1.167v1.323s-.751.208-1.22.208c-.428 0-.615-.281-.615-.719 0-.448.24-.667.688-.708l1.147-.104zm2.82 4.625h1.188V35.37c.052.01.542.093.97.093 1.595 0 2.335-.604 2.335-2.77 0-1.95-.646-2.668-2.002-2.668-.594 0-1.303.406-1.303.406v-.281h-1.189v7.428zm2.272-6.46c.626 0 1.012.397 1.012 1.574 0 1.24-.271 1.698-1.21 1.698-.344 0-.844-.062-.886-.073V31.39s.626-.271 1.084-.271zm5.448-1.093c-1.762 0-2.346 1.031-2.346 2.698 0 1.699.552 2.74 2.346 2.74 1.793 0 2.335-1.062 2.335-2.74 0-1.656-.605-2.698-2.335-2.698zm0 4.365c-.928 0-1.137-.541-1.137-1.667 0-1.114.25-1.615 1.137-1.615.844 0 1.126.521 1.126 1.615 0 1.105-.199 1.667-1.126 1.667zm5.405-4.365c-1.553 0-2.19.792-2.19 2.657 0 1.98.574 2.781 2.159 2.781.552 0 1.616-.187 1.616-.187l-.031-1.032s-.824.094-1.22.094c-1.095 0-1.314-.406-1.314-1.656 0-1.126.24-1.521 1.303-1.521.396 0 1.22.093 1.22.093l.042-1.031s-1.022-.198-1.585-.198zm-.605-.76h1.001l1.335-1.71h-1.293l-.532.71-.542-.71h-1.293l1.324 1.71zm3.341 6.084h1.19V30.15h-1.19v5.199zm0-6.043h1.19v-1.26h-1.19v1.26zm3.936 6.043v-4s.542-.251 1.126-.251c.771 0 .897.51.897 1.5v2.75h1.188V32.63c0-1.75-.365-2.605-1.814-2.605-.657 0-1.397.438-1.397.438v-.313h-1.189v5.199h1.189zm4.77-.209c0 .855-.22 1.032-1.158 1.595l.532.99c1.428-.73 1.814-1.188 1.814-2.574V30.15h-1.189v4.99zm0-5.907h1.188v-1.26h-1.189v1.26zm4.759 5.147c-.845 0-1.158-.365-1.168-1.125h3.2l.084-.855c0-1.615-.74-2.375-2.22-2.375-1.45 0-2.263.886-2.263 2.782 0 1.833.615 2.656 2.19 2.656.927 0 2.116-.25 2.116-.25l-.021-.927s-1.095.094-1.918.094zm-1.168-2.053c0-.864.323-1.24 1.063-1.24s1.043.334 1.043 1.24h-2.106z"/>
        </g>
    </g>
</svg>
